<svg xmlns="http://www.w3.org/2000/svg" xmlns:xlink="http://www.w3.org/1999/xlink" contentStyleType="text/css" height="571px" preserveAspectRatio="none" style="width:687px;height:571px;background:#FFFFFF;" version="1.1" viewBox="0 0 687 571" width="687px" zoomAndPan="magnify"><defs/><g><!--class user--><g id="elem_user"><rect codeLine="7" fill="#F1F1F1" height="145.7813" id="user" rx="2.5" ry="2.5" style="stroke:#181818;stroke-width:0.5;" width="275.7777" x="7" y="7"/><ellipse cx="125.3708" cy="23" fill="#FFFFFF" rx="11" ry="11" style="stroke:#181818;stroke-width:1;"/><path d="M126.2145,29.75 L123.7614,29.75 L123.7614,19.5 L120.6208,19.5 L120.6208,17.3594 L129.3551,17.3594 L129.3551,19.5 L126.2145,19.5 L126.2145,29.75 Z " fill="#000000"/><text fill="#000000" font-family="sans-serif" font-size="14" lengthAdjust="spacing" textLength="30.5361" x="145.8708" y="27.8467">user</text><line style="stroke:#181818;stroke-width:0.5;" x1="8" x2="281.7777" y1="39" y2="39"/><path d="M20.4167,46.4635 C18.8067,46.4635 17.5,47.7702 17.5,49.3802 C17.5,49.5669 17.5,49.7535 17.535,49.9285 L14,53.4635 L14,55.7969 L17.5,55.7969 L17.5,53.4635 L19.8333,53.4635 L19.8333,52.2969 L19.8683,52.2619 C20.0433,52.2969 20.23,52.2969 20.4167,52.2969 C22.0267,52.2969 23.3333,50.9902 23.3333,49.3802 C23.3333,47.7702 22.0267,46.4635 20.4167,46.4635 M21,47.6302 C21.6417,47.6302 22.1667,48.1552 22.1667,48.7969 C22.1667,49.4385 21.6417,49.9635 21,49.9635 C20.3583,49.9635 19.8333,49.4385 19.8333,48.7969 C19.8333,48.1552 20.3583,47.6302 21,47.6302 " fill="#B8861B" style="stroke:;stroke-width:0;stroke-dasharray:;"/><text fill="#000000" font-family="sans-serif" font-size="14" font-weight="bold" lengthAdjust="spacing" textLength="56.5195" x="29.2074" y="55.9951">user_id</text><text fill="#000000" font-family="sans-serif" font-size="14" lengthAdjust="spacing" textLength="132.166" x="85.7269" y="55.9951">: BIGINT NOT NULL</text><line style="stroke:#181818;stroke-width:1;" x1="8" x2="281.7777" y1="63.2969" y2="63.2969"/><path d="M18.6667,71.9271 C16.73,71.9271 15.1667,73.4904 15.1667,75.4271 C15.1667,77.3638 16.73,78.9271 18.6667,78.9271 C20.6033,78.9271 22.1667,77.3638 22.1667,75.4271 C22.1667,73.4904 20.6033,71.9271 18.6667,71.9271 " fill="#EFEFEF" style="stroke:;stroke-width:0;stroke-dasharray:;"/><text fill="#000000" font-family="sans-serif" font-size="14" lengthAdjust="spacing" textLength="190.21" x="28.7835" y="80.292">username: TEXT NOT NULL</text><path d="M18.6667,88.224 C16.73,88.224 15.1667,89.7873 15.1667,91.724 C15.1667,93.6606 16.73,95.224 18.6667,95.224 C20.6033,95.224 22.1667,93.6606 22.1667,91.724 C22.1667,89.7873 20.6033,88.224 18.6667,88.224 " fill="#EFEFEF" style="stroke:;stroke-width:0;stroke-dasharray:;"/><text fill="#000000" font-family="sans-serif" font-size="14" lengthAdjust="spacing" textLength="158.5801" x="28.7835" y="96.5889">email: TEXT NOT NULL</text><path d="M18.6667,104.5208 C16.73,104.5208 15.1667,106.0842 15.1667,108.0208 C15.1667,109.9575 16.73,111.5208 18.6667,111.5208 C20.6033,111.5208 22.1667,109.9575 22.1667,108.0208 C22.1667,106.0842 20.6033,104.5208 18.6667,104.5208 " fill="#EFEFEF" style="stroke:;stroke-width:0;stroke-dasharray:;"/><text fill="#000000" font-family="sans-serif" font-size="14" lengthAdjust="spacing" textLength="186.6826" x="28.7835" y="112.8857">password: TEXT NOT NULL</text><path d="M18.6667,120.8177 C16.73,120.8177 15.1667,122.381 15.1667,124.3177 C15.1667,126.2544 16.73,127.8177 18.6667,127.8177 C20.6033,127.8177 22.1667,126.2544 22.1667,124.3177 C22.1667,122.381 20.6033,120.8177 18.6667,120.8177 " fill="#EFEFEF" style="stroke:;stroke-width:0;stroke-dasharray:;"/><text fill="#000000" font-family="sans-serif" font-size="14" lengthAdjust="spacing" textLength="247.9941" x="28.7835" y="129.1826">created_date: DATETIME NOT NULL</text><path d="M18.6667,137.1146 C16.73,137.1146 15.1667,138.6779 15.1667,140.6146 C15.1667,142.5512 16.73,144.1146 18.6667,144.1146 C20.6033,144.1146 22.1667,142.5512 22.1667,140.6146 C22.1667,138.6779 20.6033,137.1146 18.6667,137.1146 " fill="#EFEFEF" style="stroke:;stroke-width:0;stroke-dasharray:;"/><text fill="#000000" font-family="sans-serif" font-size="14" lengthAdjust="spacing" textLength="180.3936" x="28.7835" y="145.4795">modified_date: DATETIME</text></g><!--class workout_set--><g id="elem_workout_set"><rect codeLine="17" fill="#F1F1F1" height="113.1875" id="workout_set" rx="2.5" ry="2.5" style="stroke:#181818;stroke-width:0.5;" width="230.4349" x="29.67" y="212.78"/><ellipse cx="98.0359" cy="228.78" fill="#FFFFFF" rx="11" ry="11" style="stroke:#181818;stroke-width:1;"/><path d="M98.8796,235.53 L96.4265,235.53 L96.4265,225.28 L93.2859,225.28 L93.2859,223.1394 L102.0203,223.1394 L102.0203,225.28 L98.8796,225.28 L98.8796,235.53 Z " fill="#000000"/><text fill="#000000" font-family="sans-serif" font-size="14" lengthAdjust="spacing" textLength="85.2031" x="118.5359" y="233.6267">workout_set</text><line style="stroke:#181818;stroke-width:0.5;" x1="30.67" x2="259.1049" y1="244.78" y2="244.78"/><path d="M43.0867,252.2435 C41.4767,252.2435 40.17,253.5502 40.17,255.1602 C40.17,255.3469 40.17,255.5335 40.205,255.7085 L36.67,259.2435 L36.67,261.5769 L40.17,261.5769 L40.17,259.2435 L42.5033,259.2435 L42.5033,258.0769 L42.5383,258.0419 C42.7133,258.0769 42.9,258.0769 43.0867,258.0769 C44.6967,258.0769 46.0033,256.7702 46.0033,255.1602 C46.0033,253.5502 44.6967,252.2435 43.0867,252.2435 M43.67,253.4102 C44.3117,253.4102 44.8367,253.9352 44.8367,254.5769 C44.8367,255.2185 44.3117,255.7435 43.67,255.7435 C43.0283,255.7435 42.5033,255.2185 42.5033,254.5769 C42.5033,253.9352 43.0283,253.4102 43.67,253.4102 " fill="#B8861B" style="stroke:;stroke-width:0;stroke-dasharray:;"/><text fill="#000000" font-family="sans-serif" font-size="14" font-weight="bold" lengthAdjust="spacing" textLength="46.3408" x="51.8774" y="261.7751">set_id</text><text fill="#000000" font-family="sans-serif" font-size="14" lengthAdjust="spacing" textLength="132.166" x="98.2182" y="261.7751">: BIGINT NOT NULL</text><line style="stroke:#181818;stroke-width:1;" x1="30.67" x2="259.1049" y1="269.0769" y2="269.0769"/><path d="M43.0867,276.5404 C41.4767,276.5404 40.17,277.8471 40.17,279.4571 C40.17,279.6438 40.17,279.8304 40.205,280.0054 L36.67,283.5404 L36.67,285.8738 L40.17,285.8738 L40.17,283.5404 L42.5033,283.5404 L42.5033,282.3738 L42.5383,282.3388 C42.7133,282.3738 42.9,282.3738 43.0867,282.3738 C44.6967,282.3738 46.0033,281.0671 46.0033,279.4571 C46.0033,277.8471 44.6967,276.5404 43.0867,276.5404 M43.67,277.7071 C44.3117,277.7071 44.8367,278.2321 44.8367,278.8738 C44.8367,279.5154 44.3117,280.0404 43.67,280.0404 C43.0283,280.0404 42.5033,279.5154 42.5033,278.8738 C42.5033,278.2321 43.0283,277.7071 43.67,277.7071 " fill="#AAAAAA" style="stroke:;stroke-width:0;stroke-dasharray:;"/><text fill="#000000" font-family="sans-serif" font-size="14" lengthAdjust="spacing" textLength="182.4785" x="51.4535" y="286.072">user_id: BIGINT NOT NULL</text><path d="M41.3367,294.004 C39.4,294.004 37.8367,295.5673 37.8367,297.504 C37.8367,299.4406 39.4,301.004 41.3367,301.004 C43.2733,301.004 44.8367,299.4406 44.8367,297.504 C44.8367,295.5673 43.2733,294.004 41.3367,294.004 " fill="#EFEFEF" style="stroke:;stroke-width:0;stroke-dasharray:;"/><text fill="#000000" font-family="sans-serif" font-size="14" lengthAdjust="spacing" textLength="133.7656" x="51.4535" y="302.3689">title: VARCHAR(64)</text><path d="M41.3367,310.3008 C39.4,310.3008 37.8367,311.8642 37.8367,313.8008 C37.8367,315.7375 39.4,317.3008 41.3367,317.3008 C43.2733,317.3008 44.8367,315.7375 44.8367,313.8008 C44.8367,311.8642 43.2733,310.3008 41.3367,310.3008 " fill="#EFEFEF" style="stroke:;stroke-width:0;stroke-dasharray:;"/><text fill="#000000" font-family="sans-serif" font-size="14" lengthAdjust="spacing" textLength="202.6514" x="51.4535" y="318.6657">card_color_hex: VARCHAR(8)</text></g><!--class workout_task--><g id="elem_workout_task"><rect codeLine="25" fill="#F1F1F1" height="178.375" id="workout_task" rx="2.5" ry="2.5" style="stroke:#181818;stroke-width:0.5;" width="230.4349" x="29.67" y="385.96"/><ellipse cx="93.9993" cy="401.96" fill="#FFFFFF" rx="11" ry="11" style="stroke:#181818;stroke-width:1;"/><path d="M94.843,408.71 L92.3899,408.71 L92.3899,398.46 L89.2493,398.46 L89.2493,396.3194 L97.9836,396.3194 L97.9836,398.46 L94.843,398.46 L94.843,408.71 Z " fill="#000000"/><text fill="#000000" font-family="sans-serif" font-size="14" lengthAdjust="spacing" textLength="93.2764" x="114.4993" y="406.8067">workout_task</text><line style="stroke:#181818;stroke-width:0.5;" x1="30.67" x2="259.1049" y1="417.96" y2="417.96"/><path d="M43.0867,425.4235 C41.4767,425.4235 40.17,426.7302 40.17,428.3402 C40.17,428.5269 40.17,428.7135 40.205,428.8885 L36.67,432.4235 L36.67,434.7569 L40.17,434.7569 L40.17,432.4235 L42.5033,432.4235 L42.5033,431.2569 L42.5383,431.2219 C42.7133,431.2569 42.9,431.2569 43.0867,431.2569 C44.6967,431.2569 46.0033,429.9502 46.0033,428.3402 C46.0033,426.7302 44.6967,425.4235 43.0867,425.4235 M43.67,426.5902 C44.3117,426.5902 44.8367,427.1152 44.8367,427.7569 C44.8367,428.3985 44.3117,428.9235 43.67,428.9235 C43.0283,428.9235 42.5033,428.3985 42.5033,427.7569 C42.5033,427.1152 43.0283,426.5902 43.67,426.5902 " fill="#B8861B" style="stroke:;stroke-width:0;stroke-dasharray:;"/><text fill="#000000" font-family="sans-serif" font-size="14" font-weight="bold" lengthAdjust="spacing" textLength="55.6035" x="51.8774" y="434.9551">task_id</text><text fill="#000000" font-family="sans-serif" font-size="14" lengthAdjust="spacing" textLength="56.9023" x="107.4809" y="434.9551">: BIGINT</text><line style="stroke:#181818;stroke-width:1;" x1="30.67" x2="259.1049" y1="442.2569" y2="442.2569"/><path d="M43.0867,449.7204 C41.4767,449.7204 40.17,451.0271 40.17,452.6371 C40.17,452.8238 40.17,453.0104 40.205,453.1854 L36.67,456.7204 L36.67,459.0538 L40.17,459.0538 L40.17,456.7204 L42.5033,456.7204 L42.5033,455.5538 L42.5383,455.5188 C42.7133,455.5538 42.9,455.5538 43.0867,455.5538 C44.6967,455.5538 46.0033,454.2471 46.0033,452.6371 C46.0033,451.0271 44.6967,449.7204 43.0867,449.7204 M43.67,450.8871 C44.3117,450.8871 44.8367,451.4121 44.8367,452.0538 C44.8367,452.6954 44.3117,453.2204 43.67,453.2204 C43.0283,453.2204 42.5033,452.6954 42.5033,452.0538 C42.5033,451.4121 43.0283,450.8871 43.67,450.8871 " fill="#AAAAAA" style="stroke:;stroke-width:0;stroke-dasharray:;"/><text fill="#000000" font-family="sans-serif" font-size="14" lengthAdjust="spacing" textLength="173.3389" x="51.4535" y="459.252">set_id: BIGINT NOT NULL</text><path d="M41.3367,467.184 C39.4,467.184 37.8367,468.7473 37.8367,470.684 C37.8367,472.6206 39.4,474.184 41.3367,474.184 C43.2733,474.184 44.8367,472.6206 44.8367,470.684 C44.8367,468.7473 43.2733,467.184 41.3367,467.184 " fill="#EFEFEF" style="stroke:;stroke-width:0;stroke-dasharray:;"/><text fill="#000000" font-family="sans-serif" font-size="14" lengthAdjust="spacing" textLength="70.8682" x="51.4535" y="475.5489">index: INT</text><path d="M41.3367,483.4808 C39.4,483.4808 37.8367,485.0442 37.8367,486.9808 C37.8367,488.9175 39.4,490.4808 41.3367,490.4808 C43.2733,490.4808 44.8367,488.9175 44.8367,486.9808 C44.8367,485.0442 43.2733,483.4808 41.3367,483.4808 " fill="#EFEFEF" style="stroke:;stroke-width:0;stroke-dasharray:;"/><text fill="#000000" font-family="sans-serif" font-size="14" lengthAdjust="spacing" textLength="133.7656" x="51.4535" y="491.8457">title: VARCHAR(64)</text><path d="M41.3367,499.7777 C39.4,499.7777 37.8367,501.341 37.8367,503.2777 C37.8367,505.2144 39.4,506.7777 41.3367,506.7777 C43.2733,506.7777 44.8367,505.2144 44.8367,503.2777 C44.8367,501.341 43.2733,499.7777 41.3367,499.7777 " fill="#EFEFEF" style="stroke:;stroke-width:0;stroke-dasharray:;"/><text fill="#000000" font-family="sans-serif" font-size="14" lengthAdjust="spacing" textLength="170.8096" x="51.4535" y="508.1426">objective_type: CHAR(1)</text><path d="M41.3367,516.0746 C39.4,516.0746 37.8367,517.6379 37.8367,519.5746 C37.8367,521.5113 39.4,523.0746 41.3367,523.0746 C43.2733,523.0746 44.8367,521.5113 44.8367,519.5746 C44.8367,517.6379 43.2733,516.0746 41.3367,516.0746 " fill="#EFEFEF" style="stroke:;stroke-width:0;stroke-dasharray:;"/><text fill="#000000" font-family="sans-serif" font-size="14" lengthAdjust="spacing" textLength="133.7998" x="51.4535" y="524.4395">objective_reps: INT</text><path d="M41.3367,532.3715 C39.4,532.3715 37.8367,533.9348 37.8367,535.8715 C37.8367,537.8081 39.4,539.3715 41.3367,539.3715 C43.2733,539.3715 44.8367,537.8081 44.8367,535.8715 C44.8367,533.9348 43.2733,532.3715 41.3367,532.3715 " fill="#EFEFEF" style="stroke:;stroke-width:0;stroke-dasharray:;"/><text fill="#000000" font-family="sans-serif" font-size="14" lengthAdjust="spacing" textLength="172.7783" x="51.4535" y="540.7364">objective_time_secs: INT</text><path d="M41.3367,548.6683 C39.4,548.6683 37.8367,550.2317 37.8367,552.1683 C37.8367,554.105 39.4,555.6683 41.3367,555.6683 C43.2733,555.6683 44.8367,554.105 44.8367,552.1683 C44.8367,550.2317 43.2733,548.6683 41.3367,548.6683 " fill="#EFEFEF" style="stroke:;stroke-width:0;stroke-dasharray:;"/><text fill="#000000" font-family="sans-serif" font-size="14" lengthAdjust="spacing" textLength="202.6514" x="51.4535" y="557.0332">card_color_hex: VARCHAR(8)</text></g><g id="elem_GMN5"><path d="M295.57,462.59 L295.57,471.15 L260.45,475.15 L295.57,479.15 L295.57,487.7228 A0,0 0 0 0 295.57,487.7228 L680.2018,487.7228 A0,0 0 0 0 680.2018,487.7228 L680.2018,472.59 L670.2018,462.59 L295.57,462.59 A0,0 0 0 0 295.57,462.59 " fill="#FEFFDD" style="stroke:#181818;stroke-width:0.5;"/><path d="M670.2018,462.59 L670.2018,472.59 L680.2018,472.59 L670.2018,462.59 " fill="#FEFFDD" style="stroke:#181818;stroke-width:0.5;"/><text fill="#000000" font-family="sans-serif" font-size="13" lengthAdjust="spacing" textLength="363.6318" x="301.57" y="479.6569">objective_type as "R" for reps or "T" for time in seconds</text></g><!--class refresh_token--><g id="elem_refresh_token"><rect codeLine="38" fill="#F1F1F1" height="145.7813" id="refresh_token" rx="2.5" ry="2.5" style="stroke:#181818;stroke-width:0.5;" width="266.9935" x="317.39" y="7"/><ellipse cx="398.3955" cy="23" fill="#FFFFFF" rx="11" ry="11" style="stroke:#181818;stroke-width:1;"/><path d="M399.2393,29.75 L396.7862,29.75 L396.7862,19.5 L393.6455,19.5 L393.6455,17.3594 L402.3799,17.3594 L402.3799,19.5 L399.2393,19.5 L399.2393,29.75 Z " fill="#000000"/><text fill="#000000" font-family="sans-serif" font-size="14" lengthAdjust="spacing" textLength="96.4824" x="418.8955" y="27.8467">refresh_token</text><line style="stroke:#181818;stroke-width:0.5;" x1="318.39" x2="583.3835" y1="39" y2="39"/><path d="M330.8067,46.4635 C329.1967,46.4635 327.89,47.7702 327.89,49.3802 C327.89,49.5669 327.89,49.7535 327.925,49.9285 L324.39,53.4635 L324.39,55.7969 L327.89,55.7969 L327.89,53.4635 L330.2233,53.4635 L330.2233,52.2969 L330.2583,52.2619 C330.4333,52.2969 330.62,52.2969 330.8067,52.2969 C332.4167,52.2969 333.7233,50.9902 333.7233,49.3802 C333.7233,47.7702 332.4167,46.4635 330.8067,46.4635 M331.39,47.6302 C332.0317,47.6302 332.5567,48.1552 332.5567,48.7969 C332.5567,49.4385 332.0317,49.9635 331.39,49.9635 C330.7483,49.9635 330.2233,49.4385 330.2233,48.7969 C330.2233,48.1552 330.7483,47.6302 331.39,47.6302 " fill="#B8861B" style="stroke:;stroke-width:0;stroke-dasharray:;"/><text fill="#000000" font-family="sans-serif" font-size="14" font-weight="bold" lengthAdjust="spacing" textLength="66.9033" x="339.5974" y="55.9951">token_id</text><text fill="#000000" font-family="sans-serif" font-size="14" lengthAdjust="spacing" textLength="56.9023" x="406.5007" y="55.9951">: BIGINT</text><line style="stroke:#181818;stroke-width:1;" x1="318.39" x2="583.3835" y1="63.2969" y2="63.2969"/><path d="M330.8067,70.7604 C329.1967,70.7604 327.89,72.0671 327.89,73.6771 C327.89,73.8638 327.89,74.0504 327.925,74.2254 L324.39,77.7604 L324.39,80.0937 L327.89,80.0937 L327.89,77.7604 L330.2233,77.7604 L330.2233,76.5937 L330.2583,76.5587 C330.4333,76.5937 330.62,76.5937 330.8067,76.5937 C332.4167,76.5937 333.7233,75.2871 333.7233,73.6771 C333.7233,72.0671 332.4167,70.7604 330.8067,70.7604 M331.39,71.9271 C332.0317,71.9271 332.5567,72.4521 332.5567,73.0937 C332.5567,73.7354 332.0317,74.2604 331.39,74.2604 C330.7483,74.2604 330.2233,73.7354 330.2233,73.0937 C330.2233,72.4521 330.7483,71.9271 331.39,71.9271 " fill="#AAAAAA" style="stroke:;stroke-width:0;stroke-dasharray:;"/><text fill="#000000" font-family="sans-serif" font-size="14" lengthAdjust="spacing" textLength="182.4785" x="339.1735" y="80.292">user_id: BIGINT NOT NULL</text><path d="M329.0567,88.224 C327.12,88.224 325.5567,89.7873 325.5567,91.724 C325.5567,93.6606 327.12,95.224 329.0567,95.224 C330.9933,95.224 332.5567,93.6606 332.5567,91.724 C332.5567,89.7873 330.9933,88.224 329.0567,88.224 " fill="#EFEFEF" style="stroke:;stroke-width:0;stroke-dasharray:;"/><text fill="#000000" font-family="sans-serif" font-size="14" lengthAdjust="spacing" textLength="239.21" x="339.1735" y="96.5889">issued_date: DATETIME NOT NULL</text><path d="M329.0567,104.5208 C327.12,104.5208 325.5567,106.0842 325.5567,108.0208 C325.5567,109.9575 327.12,111.5208 329.0567,111.5208 C330.9933,111.5208 332.5567,109.9575 332.5567,108.0208 C332.5567,106.0842 330.9933,104.5208 329.0567,104.5208 " fill="#EFEFEF" style="stroke:;stroke-width:0;stroke-dasharray:;"/><text fill="#000000" font-family="sans-serif" font-size="14" lengthAdjust="spacing" textLength="172.0264" x="339.1735" y="112.8857">expired_date: DATETIME</text><path d="M329.0567,120.8177 C327.12,120.8177 325.5567,122.381 325.5567,124.3177 C325.5567,126.2544 327.12,127.8177 329.0567,127.8177 C330.9933,127.8177 332.5567,126.2544 332.5567,124.3177 C332.5567,122.381 330.9933,120.8177 329.0567,120.8177 " fill="#EFEFEF" style="stroke:;stroke-width:0;stroke-dasharray:;"/><text fill="#000000" font-family="sans-serif" font-size="14" lengthAdjust="spacing" textLength="190.9551" x="339.1735" y="129.1826">token_string: TEXT UNIQUE</text><path d="M329.0567,137.1146 C327.12,137.1146 325.5567,138.6779 325.5567,140.6146 C325.5567,142.5512 327.12,144.1146 329.0567,144.1146 C330.9933,144.1146 332.5567,142.5512 332.5567,140.6146 C332.5567,138.6779 330.9933,137.1146 329.0567,137.1146 " fill="#EFEFEF" style="stroke:;stroke-width:0;stroke-dasharray:;"/><text fill="#000000" font-family="sans-serif" font-size="14" lengthAdjust="spacing" textLength="221.1631" x="339.1735" y="145.4795">valid: BOOLEAN DEFAULT TRUE</text></g><!--link user to workout_set--><g id="link_user_workout_set"><path codeLine="49" d="M144.89,161.1 C144.89,180.81 144.89,175.85 144.89,194.49 " fill="none" id="user-workout_set" style="stroke:#181818;stroke-width:1;"/><line style="stroke:#181818;stroke-width:1;" x1="140.89" x2="148.89" y1="157.1" y2="157.1"/><line style="stroke:#181818;stroke-width:1;" x1="140.89" x2="148.89" y1="160.1" y2="160.1"/><line style="stroke:#181818;stroke-width:1;" x1="144.89" x2="144.89" y1="161.1" y2="153.1"/><line style="stroke:#181818;stroke-width:1;" x1="144.89" x2="150.89" y1="204.49" y2="212.49"/><line style="stroke:#181818;stroke-width:1;" x1="144.89" x2="138.89" y1="204.49" y2="212.49"/><line style="stroke:#181818;stroke-width:1;" x1="144.89" x2="144.89" y1="204.49" y2="212.49"/><ellipse cx="144.89" cy="198.49" fill="none" rx="4" ry="4" style="stroke:#181818;stroke-width:1;"/></g><!--link workout_set to workout_task--><g id="link_workout_set_workout_task"><path codeLine="50" d="M144.89,334.32 C144.89,352.71 144.89,347.61 144.89,367.79 " fill="none" id="workout_set-workout_task" style="stroke:#181818;stroke-width:1;"/><line style="stroke:#181818;stroke-width:1;" x1="140.89" x2="148.89" y1="330.32" y2="330.32"/><line style="stroke:#181818;stroke-width:1;" x1="140.89" x2="148.89" y1="333.32" y2="333.32"/><line style="stroke:#181818;stroke-width:1;" x1="144.89" x2="144.89" y1="334.32" y2="326.32"/><line style="stroke:#181818;stroke-width:1;" x1="144.89" x2="150.89" y1="377.79" y2="385.79"/><line style="stroke:#181818;stroke-width:1;" x1="144.89" x2="138.89" y1="377.79" y2="385.79"/><line style="stroke:#181818;stroke-width:1;" x1="144.89" x2="144.89" y1="377.79" y2="385.79"/><ellipse cx="144.89" cy="371.79" fill="none" rx="4" ry="4" style="stroke:#181818;stroke-width:1;"/></g><!--link user to refresh_token--><g id="link_user_refresh_token"><path codeLine="51" d="M291.25,79.89 C302.49,79.89 287.73,79.89 298.97,79.89 " fill="none" id="user-refresh_token" style="stroke:#181818;stroke-width:1;"/><line style="stroke:#181818;stroke-width:1;" x1="287.25" x2="287.25" y1="83.89" y2="75.89"/><line style="stroke:#181818;stroke-width:1;" x1="290.25" x2="290.25" y1="83.89" y2="75.89"/><line style="stroke:#181818;stroke-width:1;" x1="291.25" x2="283.25" y1="79.89" y2="79.89"/><line style="stroke:#181818;stroke-width:1;" x1="308.97" x2="316.97" y1="79.89" y2="73.89"/><line style="stroke:#181818;stroke-width:1;" x1="308.97" x2="316.97" y1="79.89" y2="85.89"/><line style="stroke:#181818;stroke-width:1;" x1="308.97" x2="316.97" y1="79.89" y2="79.89"/><ellipse cx="302.97" cy="79.89" fill="none" rx="4" ry="4" style="stroke:#181818;stroke-width:1;"/></g><!--SRC=[ZPDXQzim48Q_-rTSCnWnB9J2A24OWxTwMo1BQ716lndPEYTQRCb8SfkmzhzFSfpMMLml3h7nwNbzxzr9LnGpnX5AoGeYz_4MzyET2rxYUwd8XPnyICRZsnlp-j4i-Tvr7VLXvrqdldFLg3CXaQtvgxgHalewaxxAJA0gU5k1cVqPHO6KaP74L4ZQ9TKaoT4gaMkczx03puDXz0cUDaoZ2xxlECu1gXHA5_uuOAvscJOUC-fEuClq-tGUmNnX_glPh2P7e_hHMBGi9mKQE0eV_a4R1Wl2yZwW94ezcNhwc5GYqKXZQkw6kmkYC9h-33lPGb2MiNFOUJcMRh9jHQLZXRgh0oRytmQqHzlViSQL6KTktVmAbbz_1ClXxMVtf40YQLoFCzxWhiMDtNFVcgXjbt4RRnjvpt1lWOqXncdju_YPoyeGoMzCDNl4MEzBozNGpJkCn5ATfsXzWnLeXfHsGFtzua8ZIBRUw0cSMWAYOB0Ss7Q0JG_cEOWExpOTC0uce-1K7RikCPEeDh4MM-ITRRSBb_Jzeet2bAektEcuAvdisEZjUTNUb9QChuy7R3MVtgzEg4UI7smj5hCmcCDT-2rOpIA8bglws3Yj4mClObILe-TdiEKuxJtvjjJYdPF-MIJ7J1_rVm40]--></g></svg>